<?xml version="1.0" encoding="UTF-8"?>
<svg xmlns="http://www.w3.org/2000/svg" viewBox="0 0 1080 1080">
  <defs>
    <style>
      .cls-1 {
        stroke-width: 2.05px;
      }

      .cls-1, .cls-2, .cls-3 {
        fill: #cfc4aa;
        stroke: #000;
        stroke-miterlimit: 10;
      }

      .cls-2 {
        stroke-width: 2.05px;
      }

      .cls-3 {
        stroke-width: 2.05px;
      }

      .cls-4 {
        font-family: Inter-SemiBold, Inter;
        font-size: 25.44px;
        font-variation-settings: 'opsz' 14, 'wght' 600;
        font-weight: 600;
      }

      .cls-5 {
        fill: #414141;
      }
    </style>
  </defs>
  
  <g id="_154" data-name="123">
    <polygon class="cls-2" points="438.21 165.48 315.55 165.48 315.55 165.48 315.55 263.61 438.21 263.61 560.87 263.61 560.87 165.48 438.21 165.48"/>
    <text class="cls-4" transform="translate(407.3 215.25)"><tspan x="0" y="0">123</tspan></text>
  </g>
  <g id="_122" data-name="122">
    <rect class="cls-2" x="315.55" y="263.61" width="122.66" height="49.06"/>
    <text class="cls-4" transform="translate(349.35 292.87)"><tspan x="0" y="0">122</tspan></text>
  </g>
  <g id="_155" data-name="154">
    <rect class="cls-2" x="438.21" y="263.61" width="122.66" height="49.06"/>
    <text class="cls-4" transform="translate(471.04 295.42)"><tspan x="0" y="0">154</tspan></text>
  </g>
  <g id="_121" data-name="121">
    <rect class="cls-2" x="315.55" y="312.67" width="122.66" height="49.06"/>
    <text class="cls-4" transform="translate(351.89 343.93)"><tspan x="0" y="0">121</tspan></text>
  </g>
  <g id="_156" data-name="155">
    <rect class="cls-2" x="438.21" y="312.67" width="122.66" height="49.06"/>
    <text class="cls-4" transform="translate(471.72 345.59)"><tspan x="0" y="0">155</tspan></text>
  </g>
  <g id="_120" data-name="120">
    <rect class="cls-2" x="315.55" y="361.74" width="122.66" height="49.06"/>
    <text class="cls-4" transform="translate(348.88 394.74)"><tspan x="0" y="0">120</tspan></text>
  </g>
  <g id="_157" data-name="156">
    <rect class="cls-2" x="438.21" y="361.74" width="122.66" height="49.06"/>
    <text class="cls-4" transform="translate(471.38 392.95)"><tspan x="0" y="0">156</tspan></text>
  </g>
  <g id="_119" data-name="119">
    <rect class="cls-2" x="315.55" y="410.8" width="122.66" height="49.06"/>
    <text class="cls-4" transform="translate(351.68 440.95)"><tspan x="0" y="0">119</tspan></text>
  </g>
  <g id="_158" data-name="157">
    <rect class="cls-2" x="438.21" y="410.8" width="122.66" height="49.06"/>
    <text class="cls-4" transform="translate(472.18 443.12)"><tspan x="0" y="0">157</tspan></text>
  </g>
  <g id="_118" data-name="118">
    <rect class="cls-2" x="315.55" y="459.86" width="122.66" height="71.55"/>
    <text class="cls-4" transform="translate(351.68 503.51)"><tspan x="0" y="0">118</tspan></text>
  </g>
  <g id="_159" data-name="158">
    <rect class="cls-2" x="438.21" y="459.86" width="122.66" height="71.55"/>
    <text class="cls-4" transform="translate(471.37 503.76)"><tspan x="0" y="0">158</tspan></text>
  </g>
  <g id="_117" data-name="117">
    <rect class="cls-2" x="315.55" y="531.41" width="122.66" height="71.52"/>
    <text class="cls-4" transform="translate(352.49 576.78)"><tspan x="0" y="0">117</tspan></text>
  </g>
  <g id="_160" data-name="159">
    <rect class="cls-2" x="438.21" y="531.41" width="122.66" height="71.52"/>
    <text class="cls-4" transform="translate(471.38 575.38)"><tspan x="0" y="0">159</tspan></text>
  </g>
  <g id="_117-2" data-name="116">
    <rect class="cls-2" x="315.55" y="602.93" width="122.66" height="40.89"/>
    <text class="cls-4" transform="translate(351.68 630.4)"><tspan x="0" y="0">116</tspan></text>
  </g>
  <g id="_161" data-name="160">
    <rect class="cls-2" x="438.21" y="602.93" width="122.66" height="40.89"/>
    <text class="cls-4" transform="translate(470.77 631.55)"><tspan x="0" y="0">160</tspan></text>
  </g>
  <g id="_116" data-name="115">
    <rect class="cls-2" x="315.55" y="643.82" width="122.66" height="40.89"/>
    <text class="cls-4" transform="translate(352.03 673.55)"><tspan x="0" y="0">115</tspan></text>
  </g>
  <g id="_162" data-name="161">
    <rect class="cls-2" x="438.21" y="643.82" width="122.66" height="40.89"/>
    <text class="cls-4" transform="translate(473.79 673.81)"><tspan x="0" y="0">161</tspan></text>
  </g>
  <g id="_115" data-name="114">
    <rect class="cls-2" x="315.55" y="684.7" width="122.66" height="40.89"/>
    <text class="cls-4" transform="translate(351.35 712.1)"><tspan x="0" y="0">114</tspan></text>
  </g>
  <g id="_163" data-name="162">
    <rect class="cls-2" x="438.21" y="684.7" width="122.66" height="40.89"/>
    <text class="cls-4" transform="translate(471.24 713.89)"><tspan x="0" y="0">162</tspan></text>
  </g>
  <g id="_114" data-name="113">
    <rect class="cls-2" x="315.55" y="725.59" width="122.66" height="40.89"/>
    <text class="cls-4" transform="translate(351.73 751.42)"><tspan x="0" y="0">113</tspan></text>
  </g>
  <g id="_164" data-name="163">
    <rect class="cls-2" x="438.21" y="725.59" width="122.66" height="40.89"/>
    <text class="cls-4" transform="translate(471.07 753.98)"><tspan x="0" y="0">163</tspan></text>
  </g>
  <g id="_113" data-name="112">
    <rect class="cls-2" x="315.55" y="766.48" width="122.66" height="40.89"/>
    <text class="cls-4" transform="translate(351.89 792.78)"><tspan x="0" y="0">112</tspan></text>
  </g>
  <g id="_165" data-name="164">
    <rect class="cls-2" x="438.21" y="766.48" width="122.66" height="40.89"/>
    <text class="cls-4" transform="translate(470.69 794.95)"><tspan x="0" y="0">164</tspan></text>
  </g>
  <g id="_110" data-name="109">
    <rect class="cls-1" x="315.83" y="888.83" width="243.23" height="86.13"/>
    <text class="cls-4" transform="translate(414.54 940.46)"><tspan x="0" y="0">109</tspan></text>
  </g>
  <g id="_112" data-name="111">
    <rect class="cls-2" x="315.55" y="807.36" width="122.66" height="40.89"/>
    <text class="cls-4" transform="translate(354.44 833.89)"><tspan x="0" y="0">111</tspan></text>
  </g>
  <g id="_166" data-name="165">
    <rect class="cls-2" x="438.21" y="807.36" width="122.66" height="40.89"/>
    <text class="cls-4" transform="translate(471.38 836.7)"><tspan x="0" y="0">165</tspan></text>
  </g>
  <g id="_111" data-name="110">
    <rect class="cls-2" x="315.55" y="848.25" width="122.66" height="40.89"/>
    <text class="cls-4" transform="translate(351.43 878.26)"><tspan x="0" y="0">110</tspan></text>
  </g>
  <g id="_167" data-name="166">
    <rect class="cls-2" x="438.21" y="848.25" width="122.66" height="40.89"/>
    <text class="cls-4" transform="translate(471.03 879.08)"><tspan x="0" y="0">166</tspan></text>
  </g>
  <g id="_204" data-name="183">
    <polygon class="cls-2" points="757.12 165.48 634.46 165.48 634.46 263.61 757.12 263.61 879.78 263.61 879.78 165.48 757.12 165.48"/>
    <text class="cls-4" transform="translate(734.03 225.21)"><tspan x="0" y="0">183</tspan></text>
  </g>
  <g id="_182" data-name="182">
    <rect class="cls-2" x="634.46" y="263.61" width="122.66" height="49.06"/>
    <text class="cls-4" transform="translate(670.66 293.64)"><tspan x="0" y="0">182</tspan></text>
  </g>
  <g id="_205" data-name="204">
    <rect class="cls-2" x="757.12" y="263.61" width="122.66" height="49.06"/>
    <text class="cls-4" transform="translate(786.17 293.64)"><tspan x="0" y="0">204</tspan></text>
  </g>
  <g id="_181" data-name="181">
    <rect class="cls-2" x="634.46" y="312.67" width="122.66" height="49.06"/>
    <text class="cls-4" transform="translate(673.97 344.7)"><tspan x="0" y="0">181</tspan></text>
  </g>
  <g id="_206" data-name="205">
    <rect class="cls-2" x="757.12" y="312.67" width="122.66" height="49.06"/>
    <text class="cls-4" transform="translate(786.86 344.7)"><tspan x="0" y="0">205</tspan></text>
  </g>
  <g id="_180" data-name="180">
    <rect class="cls-2" x="634.46" y="361.74" width="122.66" height="49.06"/>
    <text class="cls-4" transform="translate(670.96 393.72)"><tspan x="0" y="0">180</tspan></text>
  </g>
  <g id="_207" data-name="206">
    <rect class="cls-2" x="757.12" y="361.74" width="122.66" height="49.06"/>
    <text class="cls-4" transform="translate(786.51 393.72)"><tspan x="0" y="0">206</tspan></text>
  </g>
  <g id="_179" data-name="179">
    <rect class="cls-2" x="634.46" y="410.8" width="122.66" height="49.06"/>
    <text class="cls-4" transform="translate(672.15 443.51)"><tspan x="0" y="0">179</tspan></text>
  </g>
  <g id="_208" data-name="207">
    <rect class="cls-2" x="757.12" y="410.8" width="122.66" height="49.06"/>
    <text class="cls-4" transform="translate(787.56 443.51)"><tspan x="0" y="0">207</tspan></text>
  </g>
  <g id="_178" data-name="178">
    <rect class="cls-2" x="634.46" y="459.86" width="122.66" height="71.55"/>
    <text class="cls-4" transform="translate(672.2 504.02)"><tspan x="0" y="0">178</tspan></text>
  </g>
  <g id="_209" data-name="208">
    <rect class="cls-2" x="757.12" y="459.86" width="122.66" height="71.55"/>
    <text class="cls-4" transform="translate(786.5 504.02)"><tspan x="0" y="0">208</tspan></text>
  </g>
  <g id="_177" data-name="177">
    <rect class="cls-2" x="634.46" y="531.41" width="122.66" height="71.52"/>
    <text class="cls-4" transform="translate(672.59 577.29)"><tspan x="0" y="0">177</tspan></text>
  </g>
  <g id="_210" data-name="209">
    <rect class="cls-2" x="757.12" y="531.41" width="122.66" height="71.52"/>
    <text class="cls-4" transform="translate(786.51 577.29)"><tspan x="0" y="0">209</tspan></text>
  </g>
  <g id="_176" data-name="176">
    <rect class="cls-2" x="634.46" y="602.93" width="122.66" height="40.89"/>
    <text class="cls-4" transform="translate(672.23 631.17)"><tspan x="0" y="0">176</tspan></text>
  </g>
  <g id="_211" data-name="210">
    <rect class="cls-2" x="757.12" y="602.93" width="122.66" height="40.89"/>
    <text class="cls-4" transform="translate(789.27 631.17)"><tspan x="0" y="0">210</tspan></text>
  </g>
  <g id="_175" data-name="175">
    <rect class="cls-2" x="634.46" y="643.82" width="122.66" height="40.89"/>
    <text class="cls-4" transform="translate(672.5 672.78)"><tspan x="0" y="0">175</tspan></text>
  </g>
  <g id="_212" data-name="211">
    <rect class="cls-2" x="757.12" y="643.82" width="122.66" height="40.89"/>
    <text class="cls-4" transform="translate(792.28 672.53)"><tspan x="0" y="0">211</tspan></text>
  </g>
  <g id="_174" data-name="174">
    <rect class="cls-2" x="634.46" y="684.7" width="122.66" height="40.89"/>
    <text class="cls-4" transform="translate(672.43 714.15)"><tspan x="0" y="0">174</tspan></text>
  </g>
  <g id="_213" data-name="212">
    <rect class="cls-2" x="757.12" y="684.7" width="122.66" height="40.89"/>
    <text class="cls-4" transform="translate(789.73 714.15)"><tspan x="0" y="0">212</tspan></text>
  </g>
  <g id="_173" data-name="173">
    <rect class="cls-2" x="634.46" y="725.59" width="122.66" height="40.89"/>
    <text class="cls-4" transform="translate(672.28 753.72)"><tspan x="0" y="0">173</tspan></text>
  </g>
  <g id="_214" data-name="213">
    <rect class="cls-2" x="757.12" y="725.59" width="122.66" height="40.89"/>
    <text class="cls-4" transform="translate(789.56 754.23)"><tspan x="0" y="0">213</tspan></text>
  </g>
  <g id="_172" data-name="172">
    <rect class="cls-2" x="634.46" y="766.48" width="122.66" height="40.89"/>
    <text class="cls-4" transform="translate(672.24 794.83)"><tspan x="0" y="0">172</tspan></text>
  </g>
  <g id="_215" data-name="214">
    <rect class="cls-2" x="757.12" y="766.48" width="122.66" height="40.89"/>
    <text class="cls-4" transform="translate(789.19 795.59)"><tspan x="0" y="0">214</tspan></text>
  </g>
  <g id="_171" data-name="171">
    <rect class="cls-2" x="634.46" y="807.36" width="122.66" height="40.89"/>
    <text class="cls-4" transform="translate(674.78 836.19)"><tspan x="0" y="0">171</tspan></text>
  </g>
  <g id="_216" data-name="215">
    <rect class="cls-2" x="757.12" y="807.36" width="122.66" height="40.89"/>
    <text class="cls-4" transform="translate(789.87 835.42)"><tspan x="0" y="0">215</tspan></text>
  </g>
  <g id="_170" data-name="170">
    <rect class="cls-2" x="634.46" y="848.25" width="122.66" height="40.89"/>
    <text class="cls-4" transform="translate(671.97 878.32)"><tspan x="0" y="0">170</tspan></text>
  </g>
  <g id="_217" data-name="216">
    <rect class="cls-2" x="757.12" y="848.25" width="122.66" height="40.89"/>
    <text class="cls-4" transform="translate(789.52 878.06)"><tspan x="0" y="0">216</tspan></text>
  </g>
  <g id="_169" data-name="169">
    <g id="LAYOUT_PLAN" data-name="LAYOUT PLAN">
      <rect class="cls-3" x="634.62" y="889.04" width="245.36" height="79.66"/>
      <text class="cls-4" transform="translate(732.83 939.85)"><tspan x="0" y="0">169</tspan></text>
    </g>
  </g>
</svg>